<svg width="128" height="128" viewBox="0 0 128 128" fill="none" xmlns="http://www.w3.org/2000/svg">
<g clip-path="url(#clip0_11_2)">
<circle cx="64" cy="64" r="62" fill="white" stroke="black" stroke-width="4"/>
<path d="M63.616 21.816C63.04 23.64 62.656 25.368 62.272 26.904C60.448 35.832 58.816 49.656 58.816 61.56C58.816 76.728 61.6 87.48 64.768 97.176L53.728 100.44C50.848 91.8 48.064 77.592 48.064 63.48C48.064 50.904 49.792 36.792 50.848 27.288C51.04 25.368 51.232 23.16 51.136 21.432L63.616 21.816ZM46.432 32.376C64.672 32.376 79.168 31.512 93.856 27.96L93.952 39C80.8 41.4 60.64 42.84 46.144 42.84C41.056 42.84 33.568 42.36 29.056 42.168L28.768 31.128C32.224 31.608 40.576 32.376 46.432 32.376ZM87.904 46.488C87.136 48.216 85.696 52.632 85.024 54.648C79.552 71.928 69.664 84.888 60.544 91.608C54.304 96.216 45.952 100.44 37.6 100.44C30.592 100.44 24.736 96.216 24.736 86.424C24.736 72.888 36.832 58.776 52.096 53.208C58.432 50.904 66.304 49.464 73.504 49.464C91.456 49.464 104.704 59.832 104.704 74.808C104.704 88.44 96.64 101.592 73.12 105.24L66.688 95.064C85.216 93.048 92.8 83.736 92.8 74.232C92.8 66.072 85.792 59.16 72.832 59.16C64.096 59.16 57.184 61.656 52.48 63.768C42.88 68.28 36.064 77.496 36.064 83.928C36.064 87.096 37.312 88.728 40.48 88.728C44.992 88.728 51.424 85.56 57.28 80.088C64.288 73.656 70.816 65.112 74.656 51.864C75.328 49.848 76 45.72 76.096 43.608L87.904 46.488Z" fill="black"/>
</g>
<defs>
<clipPath id="clip0_11_2">
<rect width="128" height="128" fill="white"/>
</clipPath>
</defs>
</svg>
